<?xml version="1.0" standalone="no"?><!DOCTYPE svg PUBLIC "-//W3C//DTD SVG 1.1//EN" 	"http://www.w3.org/Graphics/SVG/1.1/DTD/svg11.dtd"><svg width="1386" height="764" version="1.1"	xmlns="http://www.w3.org/2000/svg"><title>Krona (snapshot) - root</title><defs>	<style type="text/css">	text {font-size: 11px; font-family: sans-serif; dominant-baseline:central}	path {stroke-width:0.27499999999999997;}	path.wedge {stroke:none}	path.line {fill:none;stroke:black;}	line {stroke:black;stroke-width:0.27499999999999997;}	line.tick {stroke-width:0.5499999999999999;}	line.pattern {stroke-width:0.18333333333333332;}	circle {fill:none;stroke:black;stroke-width:0.27499999999999997;}	rect {stroke:black;stroke-width:0.27499999999999997;}	.highlight {stroke:black;stroke-width:1.375;}	.searchHighlight {fill:rgb(255, 255, 100);stroke:none;}	</style><pattern id="hiddenPattern" patternUnits="userSpaceOnUse" x="0" y="0" width="6.6" height="6.6"><line class="pattern" x1="0" y1="0" x2="3.3" y2="3.3"/><line class="pattern" x1="3.3" y1="6.6" x2="6.6" y2="3.3"/></pattern></defs><path class="wedge" fill="rgb(210,121,121)" d=" M 618,418.28999999999996 L 618,527.16 A 145.15999999999997,145.15999999999997 0 1,1 624.9069909009744,237.00441704419458 L 619.7267477252436,345.7511042610486 A 36.28999999999999,36.28999999999999 0 1 0 618,418.28999999999996 Z "/><path class="wedge" fill="rgb(216,140,140)" d=" M 618,453.0719723311677 L 618,527.16 A 145.15999999999997,145.15999999999997 0 0,1 512.942767028668,281.82813069325664 L 566.5627944686722,332.95472358962377 A 71.0719723311677,71.0719723311677 0 0 0 618,453.0719723311677 Z "/><path class="wedge" fill="rgb(223,159,159)" d=" M 618,481.5872989506946 L 618,527.16 A 145.15999999999997,145.15999999999997 0 0,1 473.49729571929106,368.2016647539649 L 518.8636400496915,372.5336253983962 A 99.58729895069459,99.58729895069459 0 0 0 618,481.5872989506946 Z "/><path class="wedge" fill="rgb(223,175,159)" d=" M 518.8636400496915,372.5336253983962 L 473.49729571929106,368.2016647539649 A 145.15999999999997,145.15999999999997 0 0,1 483.23811084338695,328.0494779363469 L 525.54634511849,344.9871399194057 A 99.58729895069459,99.58729895069459 0 0 0 518.8636400496915,372.5336253983962 Z "/><path class="wedge" fill="rgb(223,178,159)" d=" M 525.54634511849,344.9871399194057 L 483.23811084338695,328.0494779363469 A 145.15999999999997,145.15999999999997 0 0,1 495.8836371742258,303.5205789381455 L 534.2218329326132,328.1590412871015 A 99.58729895069459,99.58729895069459 0 0 0 525.54634511849,344.9871399194057 Z "/><path class="wedge" fill="rgb(223,181,159)" d=" M 534.2218329326132,328.1590412871015 L 495.8836371742258,303.5205789381455 A 145.15999999999997,145.15999999999997 0 0,1 512.942767028668,281.82813069325664 L 545.925281986437,313.2768951839311 A 99.58729895069459,99.58729895069459 0 0 0 534.2218329326132,328.1590412871015 Z "/><path class="wedge" fill="url(#hiddenPattern)" d=" M 534.2218329326132,328.1590412871015 L 495.8836371742258,303.5205789381455 A 145.15999999999997,145.15999999999997 0 0,1 512.942767028668,281.82813069325664 L 545.925281986437,313.2768951839311 A 99.58729895069459,99.58729895069459 0 0 0 534.2218329326132,328.1590412871015 Z "/><path class="wedge" fill="rgb(216,168,140)" d=" M 566.5627944686722,332.95472358962377 L 512.942767028668,281.82813069325664 A 145.15999999999997,145.15999999999997 0 0,1 618,236.84000000000003 L 618,310.9280276688323 A 71.0719723311677,71.0719723311677 0 0 0 566.5627944686722,332.95472358962377 Z "/><path class="wedge" fill="rgb(223,182,159)" d=" M 545.925281986437,313.2768951839311 L 512.942767028668,281.82813069325664 A 145.15999999999997,145.15999999999997 0 0,1 611.0930090990255,237.00441704419458 L 613.2614455242142,282.52549968069695 A 99.58729895069459,99.58729895069459 0 0 0 545.925281986437,313.2768951839311 Z "/><path class="wedge" fill="rgb(223,190,159)" d=" M 613.2614455242142,282.52549968069695 L 611.0930090990255,237.00441704419458 A 145.15999999999997,145.15999999999997 0 0,1 618,236.84000000000003 L 618,282.4127010493054 A 99.58729895069459,99.58729895069459 0 0 0 613.2614455242142,282.52549968069695 Z "/><path class="wedge" fill="url(#hiddenPattern)" d=" M 613.2614455242142,282.52549968069695 L 611.0930090990255,237.00441704419458 A 145.15999999999997,145.15999999999997 0 0,1 618,236.84000000000003 L 618,282.4127010493054 A 99.58729895069459,99.58729895069459 0 0 0 613.2614455242142,282.52549968069695 Z "/><path class="wedge" fill="rgb(216,177,140)" d=" M 618,310.9280276688323 L 618,236.84000000000003 A 145.15999999999997,145.15999999999997 0 0,1 624.9069909009744,237.00441704419458 L 621.3817406048889,311.0085281070782 A 71.0719723311677,71.0719723311677 0 0 0 618,310.9280276688323 Z "/><path class="wedge" fill="url(#hiddenPattern)" d=" M 618,310.9280276688323 L 618,236.84000000000003 A 145.15999999999997,145.15999999999997 0 0,1 624.9069909009744,237.00441704419458 L 621.3817406048889,311.0085281070782 A 71.0719723311677,71.0719723311677 0 0 0 618,310.9280276688323 Z "/><path class="wedge" fill="rgb(165,210,121)" d=" M 619.7267477252436,345.7511042610486 L 624.9069909009744,237.00441704419458 A 145.15999999999997,145.15999999999997 0 0,1 696.4794210618546,504.11636282577416 L 637.6198552654637,412.5290907064435 A 36.28999999999999,36.28999999999999 0 0 0 619.7267477252436,345.7511042610486 Z "/><path class="wedge" fill="rgb(178,216,140)" d=" M 621.3817406048889,311.0085281070782 L 624.9069909009744,237.00441704419458 A 145.15999999999997,145.15999999999997 0 0,1 760.5367696946545,354.5282893686428 L 687.7876092030347,368.5495407971778 A 71.0719723311677,71.0719723311677 0 0 0 621.3817406048889,311.0085281070782 Z "/><path class="wedge" fill="rgb(191,223,159)" d=" M 622.7385544757858,282.52549968069695 L 624.9069909009744,237.00441704419458 A 145.15999999999997,145.15999999999997 0 0,1 702.2010609933551,263.7561548003733 L 675.7663008618829,300.8785811451165 A 99.58729895069459,99.58729895069459 0 0 0 622.7385544757858,282.52549968069695 Z "/><path class="wedge" fill="rgb(184,223,159)" d=" M 675.7663008618829,300.8785811451165 L 702.2010609933551,263.7561548003733 A 145.15999999999997,145.15999999999997 0 0,1 732.103467232863,292.26804156021694 L 696.2809045372686,320.43921624019026 A 99.58729895069459,99.58729895069459 0 0 0 675.7663008618829,300.8785811451165 Z "/><path class="wedge" fill="rgb(180,223,159)" d=" M 696.2809045372686,320.43921624019026 L 732.103467232863,292.26804156021694 A 145.15999999999997,145.15999999999997 0 0,1 747.0233537267486,315.4838381060491 L 706.5167215431726,336.3664583935954 A 99.58729895069459,99.58729895069459 0 0 0 696.2809045372686,320.43921624019026 Z "/><path class="wedge" fill="rgb(176,223,159)" d=" M 706.5167215431726,336.3664583935954 L 747.0233537267486,315.4838381060491 A 145.15999999999997,145.15999999999997 0 0,1 760.5367696946545,354.5282893686428 L 715.7876267225672,363.1529797510888 A 99.58729895069459,99.58729895069459 0 0 0 706.5167215431726,336.3664583935954 Z "/><path class="wedge" fill="url(#hiddenPattern)" d=" M 706.5167215431726,336.3664583935954 L 747.0233537267486,315.4838381060491 A 145.15999999999997,145.15999999999997 0 0,1 760.5367696946545,354.5282893686428 L 715.7876267225672,363.1529797510888 A 99.58729895069459,99.58729895069459 0 0 0 706.5167215431726,336.3664583935954 Z "/><path class="wedge" fill="rgb(158,216,140)" d=" M 687.7876092030347,368.5495407971778 L 760.5367696946545,354.5282893686428 A 145.15999999999997,145.15999999999997 0 0,1 752.761889156613,435.950522063653 L 683.9809400484617,408.41478376522457 A 71.0719723311677,71.0719723311677 0 0 0 687.7876092030347,368.5495407971778 Z "/><path class="wedge" fill="rgb(174,223,159)" d=" M 715.7876267225672,363.1529797510888 L 760.5367696946545,354.5282893686428 A 145.15999999999997,145.15999999999997 0 0,1 755.1763188446213,429.4771855551569 L 712.1100790419888,414.57181504008685 A 99.58729895069459,99.58729895069459 0 0 0 715.7876267225672,363.1529797510888 Z "/><path class="wedge" fill="rgb(167,223,159)" d=" M 712.1100790419888,414.57181504008685 L 755.1763188446213,429.4771855551569 A 145.15999999999997,145.15999999999997 0 0,1 752.761889156613,435.950522063653 L 710.45365488151,419.01286008059424 A 99.58729895069459,99.58729895069459 0 0 0 712.1100790419888,414.57181504008685 Z "/><path class="wedge" fill="url(#hiddenPattern)" d=" M 712.1100790419888,414.57181504008685 L 755.1763188446213,429.4771855551569 A 145.15999999999997,145.15999999999997 0 0,1 752.761889156613,435.950522063653 L 710.45365488151,419.01286008059424 A 99.58729895069459,99.58729895069459 0 0 0 712.1100790419888,414.57181504008685 Z "/><path class="wedge" fill="rgb(149,216,140)" d=" M 683.9809400484617,408.41478376522457 L 752.761889156613,435.950522063653 A 145.15999999999997,145.15999999999997 0 0,1 713.0595841394977,491.704608213264 L 664.5422439637275,435.71261283779756 A 71.0719723311677,71.0719723311677 0 0 0 683.9809400484617,408.41478376522457 Z "/><path class="wedge" fill="rgb(167,223,159)" d=" M 710.45365488151,419.01286008059424 L 752.761889156613,435.950522063653 A 145.15999999999997,145.15999999999997 0 0,1 740.1163628257743,460.47942106185445 L 701.7781670673869,435.84095871289844 A 99.58729895069459,99.58729895069459 0 0 0 710.45365488151,419.01286008059424 Z "/><path class="wedge" fill="rgb(163,223,159)" d=" M 701.7781670673869,435.84095871289844 L 740.1163628257743,460.47942106185445 A 145.15999999999997,145.15999999999997 0 0,1 713.0595841394977,491.704608213264 L 683.2158116824804,457.2630587930777 A 99.58729895069459,99.58729895069459 0 0 0 701.7781670673869,435.84095871289844 Z "/><path class="wedge" fill="url(#hiddenPattern)" d=" M 701.7781670673869,435.84095871289844 L 740.1163628257743,460.47942106185445 A 145.15999999999997,145.15999999999997 0 0,1 713.0595841394977,491.704608213264 L 683.2158116824804,457.2630587930777 A 99.58729895069459,99.58729895069459 0 0 0 701.7781670673869,435.84095871289844 Z "/><path class="wedge" fill="rgb(122,210,121)" d=" M 664.5422439637275,435.71261283779756 L 713.0595841394977,491.704608213264 A 145.15999999999997,145.15999999999997 0 0,1 696.4794210618546,504.11636282577416 L 656.4244092193042,441.7895478088748 A 71.0719723311677,71.0719723311677 0 0 0 664.5422439637275,435.71261283779756 Z "/><path class="wedge" fill="url(#hiddenPattern)" d=" M 664.5422439637275,435.71261283779756 L 713.0595841394977,491.704608213264 A 145.15999999999997,145.15999999999997 0 0,1 696.4794210618546,504.11636282577416 L 656.4244092193042,441.7895478088748 A 71.0719723311677,71.0719723311677 0 0 0 664.5422439637275,435.71261283779756 Z "/><path class="wedge" fill="rgb(121,210,210)" d=" M 637.6198552654637,412.5290907064435 L 696.4794210618546,504.11636282577416 A 145.15999999999997,145.15999999999997 0 0,1 624.9069909009745,526.9955829558054 L 619.7267477252436,418.2488957389514 A 36.28999999999999,36.28999999999999 0 0 0 637.6198552654637,412.5290907064435 Z "/><path class="wedge" fill="rgb(140,216,216)" d=" M 656.4244092193042,441.7895478088748 L 696.4794210618546,504.11636282577416 A 145.15999999999997,145.15999999999997 0 0,1 631.7983352460353,526.5027042807089 L 624.7558204796252,452.7501529375686 A 71.0719723311677,71.0719723311677 0 0 0 656.4244092193042,441.7895478088748 Z "/><path class="wedge" fill="rgb(159,223,223)" d=" M 671.8409587128986,465.7781670673868 L 696.4794210618546,504.11636282577416 A 145.15999999999997,145.15999999999997 0 0,1 671.9505220636532,516.761889156613 L 655.0128600805944,474.45365488151003 A 99.58729895069459,99.58729895069459 0 0 0 671.8409587128986,465.7781670673868 Z "/><path class="wedge" fill="rgb(159,211,223)" d=" M 655.0128600805944,474.45365488151003 L 671.9505220636532,516.761889156613 A 145.15999999999997,145.15999999999997 0 0,1 652.2227670785486,523.0681672578453 L 641.4785955908749,478.7800891783799 A 99.58729895069459,99.58729895069459 0 0 0 655.0128600805944,474.45365488151003 Z "/><path class="wedge" fill="rgb(159,200,223)" d=" M 641.4785955908749,478.7800891783799 L 652.2227670785486,523.0681672578453 A 145.15999999999997,145.15999999999997 0 0,1 631.7983352460353,526.5027042807089 L 627.4663746016039,481.1363599503085 A 99.58729895069459,99.58729895069459 0 0 0 641.4785955908749,478.7800891783799 Z "/><path class="wedge" fill="url(#hiddenPattern)" d=" M 641.4785955908749,478.7800891783799 L 652.2227670785486,523.0681672578453 A 145.15999999999997,145.15999999999997 0 0,1 631.7983352460353,526.5027042807089 L 627.4663746016039,481.1363599503085 A 99.58729895069459,99.58729895069459 0 0 0 641.4785955908749,478.7800891783799 Z "/><path class="wedge" fill="rgb(140,181,216)" d=" M 624.7558204796252,452.7501529375686 L 631.7983352460353,526.5027042807089 A 145.15999999999997,145.15999999999997 0 0,1 624.9069909009745,526.9955829558054 L 621.381740604889,452.9914718929218 A 71.0719723311677,71.0719723311677 0 0 0 624.7558204796252,452.7501529375686 Z "/><path class="wedge" fill="url(#hiddenPattern)" d=" M 624.7558204796252,452.7501529375686 L 631.7983352460353,526.5027042807089 A 145.15999999999997,145.15999999999997 0 0,1 624.9069909009745,526.9955829558054 L 621.381740604889,452.9914718929218 A 71.0719723311677,71.0719723311677 0 0 0 624.7558204796252,452.7501529375686 Z "/><path class="wedge" fill="rgb(165,121,210)" d=" M 619.7267477252436,418.2488957389514 L 624.9069909009745,526.9955829558054 A 145.15999999999997,145.15999999999997 0 0,1 618,527.16 L 618,418.28999999999996 A 36.28999999999999,36.28999999999999 0 0 0 619.7267477252436,418.2488957389514 Z "/><rect fill="rgb(165,121,210)" x="1352.54" y="730.54" width="22" height="22"/><path class="line" d="M 621.454473775793,527.1188899176545 L 626.5586480302694,741.54 L 940.79,741.54 L 1259.6075455729167,741.54"/><text x="1345.2066666666667" y="741.54" style="font-color:black;font-weight:normal" text-anchor="end">Unknown&#160;&#160;&#160;0.8%</text><circle cx="618" cy="382" r="36.28999999999999"/><circle cx="618" cy="382" r="145.15999999999997"/><text x="618" y="382" text-anchor="middle" style="font-color:black;font-weight:bold" transform="rotate(360,618,382)">root</text><path class="line" d=" M 619.7267477252436,345.7511042610486 A 36.28999999999999,36.28999999999999 0 1 0 618,418.28999999999996"/><line x1="624.9069909009744" y1="237.00441704419458" x2="619.7267477252436" y2="345.7511042610486"/><text x="618" y="335.2754083006497" text-anchor="middle" style="font-color:black;font-weight:normal" transform="rotate(271.3636363636364,618,382)">Environmental</text><path class="line" d=" M 566.5627944686722,332.95472358962377 A 71.0719723311677,71.0719723311677 0 0 0 618,453.0719723311677"/><line x1="512.942767028668" y1="281.82813069325664" x2="566.5627944686722" y2="332.95472358962377"/><text x="618" y="461.62657031702577" text-anchor="middle" style="font-color:black;font-weight:normal" transform="rotate(66.81818181818181,618,382)">Aquatic</text><path class="line" d=" M 518.8636400496915,372.5336253983962 A 99.58729895069459,99.58729895069459 0 0 0 618,481.5872989506946"/><line x1="473.49729571929106" y1="368.2016647539649" x2="518.8636400496915" y2="372.5336253983962"/><text x="495.6263505246527" y="382" text-anchor="end" style="font-color:black;font-weight:normal" transform="rotate(-42.27272727272729,618,382)">Marine&#160;&#160;&#160;27%</text><path class="line" d=" M 525.54634511849,344.9871399194057 A 99.58729895069459,99.58729895069459 0 0 0 518.8636400496915,372.5336253983962"/><line x1="483.23811084338695" y1="328.0494779363469" x2="525.54634511849" y2="344.9871399194057"/><text x="495.6263505246527" y="382" text-anchor="end" style="font-color:black;font-weight:normal" transform="rotate(13.636363636363612,618,382)">Non-marine_Saline_and_Alkaline&#160;&#160;&#160;5%</text><path class="line" d=" M 534.2218329326132,328.1590412871015 A 99.58729895069459,99.58729895069459 0 0 0 525.54634511849,344.9871399194057"/><line x1="495.8836371742258" y1="303.5205789381455" x2="534.2218329326132" y2="328.1590412871015"/><text x="495.6263505246527" y="382" text-anchor="end" style="font-color:black;font-weight:normal" transform="rotate(27.272727272727273,618,382)">Freshwater&#160;&#160;&#160;3%</text><line x1="754.91" y1="382" x2="771.41" y2="382" class="tick" transform="rotate(218.1818181818182,618,382)"/><text x="461.84000000000003" y="382" text-anchor="end" style="font-color:black;font-weight:normal" transform="rotate(38.181818181818194,618,382)">3 more</text><path class="line" d=" M 545.925281986437,313.2768951839311 A 99.58729895069459,99.58729895069459 0 0 0 534.2218329326132,328.1590412871015"/><path class="line" d=" M 618,310.9280276688323 A 71.0719723311677,71.0719723311677 0 0 0 566.5627944686722,332.95472358962377"/><line x1="618" y1="236.84000000000003" x2="618" y2="310.9280276688323"/><text x="618" y="290.9672990351635" text-anchor="middle" style="font-color:black;font-weight:normal" transform="rotate(336.81818181818176,618,382)">Terrestrial</text><path class="line" d=" M 613.2614455242142,282.52549968069695 A 99.58729895069459,99.58729895069459 0 0 0 545.925281986437,313.2768951839311"/><line x1="611.0930090990255" y1="237.00441704419458" x2="613.2614455242142" y2="282.52549968069695"/><text x="495.6263505246527" y="382" text-anchor="end" style="font-color:black;font-weight:normal" transform="rotate(65.45454545454541,618,382)">Soil&#160;&#160;&#160;12%</text><path class="line" d=" M 618,282.4127010493054 A 99.58729895069459,99.58729895069459 0 0 0 613.2614455242142,282.52549968069695"/><path class="line" d=" M 621.3817406048889,311.0085281070782 A 71.0719723311677,71.0719723311677 0 0 0 618,310.9280276688323"/><path class="line" d=" M 637.6198552654637,412.5290907064435 A 36.28999999999999,36.28999999999999 0 0 0 619.7267477252436,345.7511042610486"/><line x1="696.4794210618546" y1="504.11636282577416" x2="637.6198552654637" y2="412.5290907064435"/><text x="618" y="321.3626193681826" text-anchor="middle" style="font-color:black;font-weight:normal" transform="rotate(435,618,382)">Host-associated</text><path class="line" d=" M 687.7876092030347,368.5495407971778 A 71.0719723311677,71.0719723311677 0 0 0 621.3817406048889,311.0085281070782"/><line x1="760.5367696946545" y1="354.5282893686428" x2="687.7876092030347" y2="368.5495407971778"/><text x="618" y="302.37342968297423" text-anchor="middle" style="font-color:black;font-weight:normal" transform="rotate(400.90909090909093,618,382)">Human</text><path class="line" d=" M 675.7663008618829,300.8785811451165 A 99.58729895069459,99.58729895069459 0 0 0 622.7385544757858,282.52549968069695"/><line x1="702.2010609933551" y1="263.7561548003733" x2="675.7663008618829" y2="300.8785811451165"/><text x="740.3736494753473" y="382" text-anchor="start" style="font-color:black;font-weight:normal" transform="rotate(289.0909090909091,618,382)">9%&#160;&#160;&#160;Digestive_system</text><path class="line" d=" M 696.2809045372686,320.43921624019026 A 99.58729895069459,99.58729895069459 0 0 0 675.7663008618829,300.8785811451165"/><line x1="732.103467232863" y1="292.26804156021694" x2="696.2809045372686" y2="320.43921624019026"/><text x="740.3736494753473" y="382" text-anchor="start" style="font-color:black;font-weight:normal" transform="rotate(313.6363636363636,618,382)">5%&#160;&#160;&#160;Respiratory_system</text><path class="line" d=" M 706.5167215431726,336.3664583935954 A 99.58729895069459,99.58729895069459 0 0 0 696.2809045372686,320.43921624019026"/><line x1="747.0233537267486" y1="315.4838381060491" x2="706.5167215431726" y2="336.3664583935954"/><text x="740.3736494753473" y="382" text-anchor="start" style="font-color:black;font-weight:normal" transform="rotate(327.2727272727273,618,382)">3%&#160;&#160;&#160;Reproductive_system</text><line x1="754.91" y1="382" x2="771.41" y2="382" class="tick" transform="rotate(340.90909090909093,618,382)"/><text x="774.16" y="382" text-anchor="start" style="font-color:black;font-weight:normal" transform="rotate(340.90909090909093,618,382)">4 more</text><path class="line" d=" M 715.7876267225672,363.1529797510888 A 99.58729895069459,99.58729895069459 0 0 0 706.5167215431726,336.3664583935954"/><path class="line" d=" M 683.9809400484617,408.41478376522457 A 71.0719723311677,71.0719723311677 0 0 0 687.7876092030347,368.5495407971778"/><line x1="752.761889156613" y1="435.950522063653" x2="683.9809400484617" y2="408.41478376522457"/><text x="618" y="473.0327009648365" text-anchor="middle" style="font-color:black;font-weight:normal" transform="rotate(275.45454545454544,618,382)">Mammals</text><path class="line" d=" M 712.1100790419888,414.57181504008685 A 99.58729895069459,99.58729895069459 0 0 0 715.7876267225672,363.1529797510888"/><line x1="755.1763188446213" y1="429.4771855551569" x2="712.1100790419888" y2="414.57181504008685"/><text x="740.3736494753473" y="382" text-anchor="start" style="font-color:black;font-weight:normal" transform="rotate(364.0909090909091,618,382)">8%&#160;&#160;&#160;Digestive_system</text><path class="line" d=" M 710.45365488151,419.01286008059424 A 99.58729895069459,99.58729895069459 0 0 0 712.1100790419888,414.57181504008685"/><path class="line" d=" M 664.5422439637275,435.71261283779756 A 71.0719723311677,71.0719723311677 0 0 0 683.9809400484617,408.41478376522457"/><line x1="713.0595841394977" y1="491.704608213264" x2="664.5422439637275" y2="435.71261283779756"/><text x="618" y="461.62657031702577" text-anchor="middle" style="font-color:black;font-weight:normal" transform="rotate(305.45454545454544,618,382)">Plants</text><path class="line" d=" M 701.7781670673869,435.84095871289844 A 99.58729895069459,99.58729895069459 0 0 0 710.45365488151,419.01286008059424"/><line x1="740.1163628257743" y1="460.47942106185445" x2="701.7781670673869" y2="435.84095871289844"/><text x="740.3736494753473" y="382" text-anchor="start" style="font-color:black;font-weight:normal" transform="rotate(387.27272727272725,618,382)">3%&#160;&#160;&#160;Rhizosphere</text><line x1="754.91" y1="382" x2="771.41" y2="382" class="tick" transform="rotate(400.9090909090909,618,382)"/><text x="774.16" y="382" text-anchor="start" style="font-color:black;font-weight:normal" transform="rotate(400.9090909090909,618,382)">4 more</text><path class="line" d=" M 683.2158116824804,457.2630587930777 A 99.58729895069459,99.58729895069459 0 0 0 701.7781670673869,435.84095871289844"/><line x1="754.91" y1="382" x2="771.41" y2="382" class="tick" transform="rotate(413.1818181818182,618,382)"/><text x="774.16" y="382" text-anchor="start" style="font-color:black;font-weight:normal" transform="rotate(413.1818181818182,618,382)">2 more</text><path class="line" d=" M 656.4244092193042,441.7895478088748 A 71.0719723311677,71.0719723311677 0 0 0 664.5422439637275,435.71261283779756"/><path class="line" d=" M 619.7267477252436,418.2488957389514 A 36.28999999999999,36.28999999999999 0 0 0 637.6198552654637,412.5290907064435"/><line x1="624.9069909009745" y1="526.9955829558054" x2="619.7267477252436" y2="418.2488957389514"/><text x="618" y="428.7245916993503" text-anchor="middle" style="font-color:black;font-weight:normal" transform="rotate(342.2727272727273,618,382)">Engineered</text><path class="line" d=" M 624.7558204796252,452.7501529375686 A 71.0719723311677,71.0719723311677 0 0 0 656.4244092193042,441.7895478088748"/><line x1="631.7983352460353" y1="526.5027042807089" x2="624.7558204796252" y2="452.7501529375686"/><text x="618" y="473.0327009648365" text-anchor="middle" style="font-color:black;font-weight:normal" transform="rotate(340.90909090909093,618,382)">Wastewater</text><path class="line" d=" M 655.0128600805944,474.45365488151003 A 99.58729895069459,99.58729895069459 0 0 0 671.8409587128986,465.7781670673868"/><line x1="671.9505220636532" y1="516.761889156613" x2="655.0128600805944" y2="474.45365488151003"/><text x="740.3736494753473" y="382" text-anchor="start" style="font-color:black;font-weight:normal" transform="rotate(422.7272727272727,618,382)">3%&#160;&#160;&#160;Industrial_wastewater</text><path class="line" d=" M 641.4785955908749,478.7800891783799 A 99.58729895069459,99.58729895069459 0 0 0 655.0128600805944,474.45365488151003"/><line x1="652.2227670785486" y1="523.0681672578453" x2="641.4785955908749" y2="478.7800891783799"/><text x="740.3736494753473" y="382" text-anchor="start" style="font-color:black;font-weight:normal" transform="rotate(432.2727272727273,618,382)">2%&#160;&#160;&#160;Nutrient_removal</text><line x1="754.91" y1="382" x2="771.41" y2="382" class="tick" transform="rotate(440.4545454545454,618,382)"/><text x="774.16" y="382" text-anchor="start" style="font-color:black;font-weight:normal" transform="rotate(440.4545454545454,618,382)">3 more</text><path class="line" d=" M 627.4663746016039,481.1363599503085 A 99.58729895069459,99.58729895069459 0 0 0 641.4785955908749,478.7800891783799"/><path class="line" d=" M 621.381740604889,452.9914718929218 A 71.0719723311677,71.0719723311677 0 0 0 624.7558204796252,452.7501529375686"/><path class="line" d=" M 618,418.28999999999996 A 36.28999999999999,36.28999999999999 0 0 0 619.7267477252436,418.2488957389514"/><line x1="618" y1="527.16" x2="618" y2="418.28999999999996"/></svg>